<?xml version="1.0" standalone="no"?>
<!DOCTYPE svg PUBLIC "-//W3C//DTD SVG 20010904//EN"
 "http://www.w3.org/TR/2001/REC-SVG-20010904/DTD/svg10.dtd">
<svg version="1.0" xmlns="http://www.w3.org/2000/svg"
 width="863.000000pt" height="359.000000pt" viewBox="0 0 863.000000 359.000000"
 preserveAspectRatio="xMidYMid meet">

<g transform="translate(0.000000,359.000000) scale(0.100000,-0.100000)"
fill="#1e4487" stroke="none">
<path d="M2330 3583 c0 -9 -110 -524 -116 -545 -5 -16 -19 -18 -109 -18 -90 0
-104 -2 -109 -17 -5 -18 -86 -392 -86 -399 0 -2 48 -4 106 -4 105 0 106 0 101
-22 -3 -13 -56 -259 -118 -548 -106 -495 -112 -532 -113 -645 -1 -110 1 -124
24 -165 30 -53 73 -84 149 -108 47 -14 97 -17 321 -16 153 0 275 5 289 11 22
9 28 27 68 209 23 109 43 202 43 205 0 4 -38 9 -86 11 -74 4 -88 8 -110 30
-20 19 -26 35 -26 69 0 36 180 912 197 957 3 9 38 12 128 12 l124 0 42 198
c23 108 44 203 46 210 3 9 -25 12 -120 12 -78 0 -125 4 -125 10 0 8 100 482
114 543 4 16 -16 17 -315 17 -175 0 -319 -3 -319 -7z"/>
<path d="M4154 3056 c-125 -39 -262 -150 -338 -274 -22 -34 -41 -61 -43 -59
-2 2 10 68 27 146 16 78 30 144 30 146 0 3 -138 4 -307 3 l-306 -3 -202 -950
-202 -950 315 -3 c173 -1 316 -1 318 0 1 2 54 246 118 544 63 297 125 566 136
597 43 115 129 192 247 224 58 16 249 22 288 9 19 -5 24 11 79 272 33 152 61
285 64 295 4 15 -5 17 -89 16 -52 0 -112 -6 -135 -13z"/>
<path d="M5013 3056 c-378 -72 -601 -310 -738 -786 -94 -326 -131 -675 -90
-849 33 -137 111 -237 228 -292 109 -51 198 -64 417 -63 176 1 204 3 291 26
230 62 390 187 497 389 41 76 85 195 97 262 l7 37 -285 0 -284 0 -13 -61 c-17
-77 -69 -186 -106 -221 -37 -34 -74 -48 -130 -48 -55 0 -95 19 -114 56 -23 42
-16 170 17 319 l28 130 474 5 475 5 18 80 c50 224 62 309 62 470 1 128 -3 172
-17 220 -51 166 -151 260 -330 312 -74 21 -407 27 -504 9z m238 -387 c50 -26
61 -136 31 -284 l-17 -80 -169 -3 c-93 -1 -173 1 -178 6 -12 12 36 195 68 260
28 57 76 100 127 113 38 10 110 4 138 -12z"/>
<path d="M7108 3055 c-126 -32 -281 -138 -340 -233 -12 -19 -23 -31 -25 -25
-2 6 5 52 17 104 11 51 20 99 20 106 0 10 -62 13 -304 13 l-304 0 -5 -22 c-16
-65 -397 -1867 -397 -1877 0 -8 91 -11 315 -11 l315 0 5 23 c3 12 66 308 140
657 74 349 142 654 151 678 33 89 92 132 182 132 86 0 131 -63 116 -162 -3
-24 -67 -327 -140 -675 -74 -348 -134 -637 -134 -643 0 -7 105 -10 315 -10
l315 0 5 23 c3 12 66 308 140 657 74 349 142 654 151 678 33 89 92 132 182
132 93 0 132 -62 112 -182 -5 -35 -68 -337 -140 -672 -71 -336 -130 -616 -130
-623 0 -11 59 -13 317 -11 l318 3 158 745 c149 700 159 752 160 860 1 100 -1
121 -21 165 -63 137 -184 192 -408 183 -94 -4 -134 -10 -192 -31 -122 -43
-230 -124 -309 -232 -16 -22 -22 -25 -23 -13 0 42 -46 135 -88 180 -66 71
-125 90 -287 94 -90 2 -148 -1 -187 -11z"/>
<path d="M985 3040 c-216 -34 -420 -146 -531 -293 -66 -87 -100 -164 -128
-289 l-6 -28 259 0 259 0 12 48 c16 65 59 140 95 167 67 51 185 56 231 10 48
-48 26 -196 -39 -263 -51 -53 -95 -70 -320 -123 -247 -58 -316 -79 -412 -126
-191 -94 -289 -223 -352 -462 -30 -111 -38 -305 -15 -378 31 -102 118 -186
231 -221 87 -27 276 -24 362 6 118 40 216 109 280 196 l29 39 0 -106 0 -107
303 0 302 0 1 113 c0 61 6 139 13 172 136 636 221 1055 221 1088 0 66 -26 161
-66 240 -71 140 -219 253 -391 298 -90 23 -251 32 -338 19z m76 -1166 c-49
-234 -89 -312 -187 -360 -102 -50 -192 -14 -209 83 -9 55 19 169 58 234 43 73
101 110 225 144 56 15 109 33 119 40 10 8 19 10 21 6 1 -4 -11 -70 -27 -147z"/>
<path d="M0 855 c0 -13 468 -15 4150 -15 3682 0 4150 2 4150 15 0 13 -468 15
-4150 15 -3682 0 -4150 -2 -4150 -15z"/>
<path d="M20 400 l0 -250 30 0 c26 0 30 4 30 26 l0 26 31 -26 c40 -34 107 -38
160 -10 90 46 90 262 0 308 -49 26 -124 21 -160 -10 l-31 -26 0 106 0 106 -30
0 -30 0 0 -250z m225 16 c45 -45 45 -141 0 -190 -53 -57 -148 -18 -162 67 -7
47 1 79 33 116 34 40 92 44 129 7z"/>
<path d="M1090 544 l0 -106 -31 26 c-24 21 -41 26 -84 26 -91 0 -145 -64 -145
-172 0 -63 31 -133 69 -152 52 -27 117 -24 165 9 l36 24 0 -24 c0 -20 5 -25
25 -25 l25 0 0 250 0 250 -30 0 -30 0 0 -106z m-37 -130 c47 -47 48 -138 2
-188 -18 -20 -34 -26 -65 -26 -52 0 -86 34 -95 93 -17 114 87 193 158 121z"/>
<path d="M7660 400 l0 -250 30 0 30 0 0 88 0 87 83 -88 c79 -86 83 -89 122
-85 l39 3 -86 90 -87 90 77 78 77 77 -40 0 c-36 0 -47 -7 -112 -72 l-73 -72 0
152 0 152 -30 0 -30 0 0 -250z"/>
<path d="M2672 608 c3 -29 7 -33 36 -36 31 -3 32 -2 32 32 0 35 -1 36 -36 36
-34 0 -35 -1 -32 -32z"/>
<path d="M3228 578 c-24 -8 -28 -15 -28 -49 0 -39 0 -39 -40 -39 -36 0 -40 -2
-40 -25 0 -22 4 -25 39 -25 l39 0 4 -126 c3 -119 4 -127 27 -145 19 -15 37
-19 75 -17 44 3 51 6 54 26 3 20 -1 22 -37 22 -54 0 -61 16 -61 139 l0 101 45
0 c41 0 45 2 45 25 0 23 -4 25 -44 25 l-45 0 -3 48 c-3 48 -3 49 -30 40z"/>
<path d="M7088 573 c-13 -3 -18 -15 -18 -44 0 -38 -1 -39 -35 -39 -31 0 -35
-3 -35 -25 0 -22 4 -25 34 -25 l33 0 5 -116 c7 -148 18 -168 102 -172 54 -3
56 -2 56 23 0 22 -4 25 -34 25 -18 0 -39 7 -46 15 -7 8 -14 59 -18 120 l-5
105 47 0 c42 0 46 2 46 25 0 23 -4 25 -45 25 l-45 0 0 45 c0 45 -3 48 -42 38z"/>
<path d="M1365 488 c-100 -35 -144 -160 -92 -258 27 -52 90 -90 149 -90 185 0
244 254 78 338 -47 24 -87 27 -135 10z m127 -67 c29 -25 32 -35 36 -95 4 -64
3 -67 -31 -101 -66 -66 -150 -39 -177 58 -34 118 86 215 172 138z"/>
<path d="M4094 481 c-169 -77 -114 -341 71 -341 185 0 240 264 71 341 -52 23
-90 23 -142 0z m138 -60 c29 -25 32 -35 36 -95 4 -64 3 -67 -31 -101 -27 -27
-43 -35 -71 -35 -47 0 -94 42 -105 93 -28 123 85 215 171 138z"/>
<path d="M4872 479 c-62 -31 -85 -81 -80 -170 4 -72 20 -105 69 -141 34 -25
109 -33 164 -18 40 11 45 16 45 41 0 34 2 33 -43 14 -46 -19 -80 -19 -117 0
-28 14 -60 60 -60 85 0 6 43 10 120 10 l120 0 0 38 c-1 49 -32 116 -64 137
-42 28 -104 29 -154 4z m132 -60 c14 -17 26 -39 26 -50 0 -17 -8 -19 -91 -19
l-91 0 6 28 c10 39 51 72 91 72 25 0 40 -8 59 -31z"/>
<path d="M5673 480 c-72 -32 -106 -116 -83 -209 25 -103 119 -152 233 -120 32
9 37 14 37 39 l0 29 -37 -16 c-72 -30 -148 1 -172 68 l-10 29 126 0 126 0 -7
47 c-9 65 -36 113 -76 135 -44 23 -84 23 -137 -2z m109 -41 c16 -9 48 -64 48
-84 0 -3 -40 -5 -90 -5 -84 0 -90 1 -90 21 0 11 13 34 29 50 31 31 67 37 103
18z"/>
<path d="M6733 481 c-147 -67 -104 -320 58 -338 25 -3 63 0 87 6 37 10 42 15
42 41 l0 29 -37 -16 c-72 -30 -148 1 -172 68 l-10 29 126 0 126 0 -7 47 c-9
66 -37 115 -77 135 -44 23 -83 22 -136 -1z m121 -53 c14 -13 28 -35 32 -50 l6
-28 -91 0 c-85 0 -91 1 -91 21 0 11 13 34 29 50 36 36 79 38 115 7z"/>
<path d="M432 363 c6 -188 28 -219 149 -214 14 1 43 12 63 26 l36 24 0 -24 c0
-20 5 -25 25 -25 l25 0 0 170 0 170 -30 0 -30 0 0 -100 c0 -110 -13 -157 -51
-184 -33 -22 -63 -20 -95 8 -27 23 -28 27 -32 150 l-4 126 -30 0 -30 0 4 -127z"/>
<path d="M1652 478 c3 -7 29 -84 58 -171 l52 -158 36 3 36 3 41 132 c22 73 42
133 45 133 3 0 24 -61 48 -136 l43 -135 37 3 36 3 47 145 c25 80 49 155 53
168 7 19 4 22 -23 22 -29 0 -30 -2 -61 -102 -45 -148 -58 -185 -59 -165 -1 10
-19 74 -42 143 l-40 125 -37 -3 -36 -3 -45 -139 -44 -139 -12 44 c-6 24 -24
88 -40 142 l-29 97 -34 0 c-23 0 -33 -4 -30 -12z"/>
<path d="M2264 438 c3 -29 6 -106 6 -170 l0 -118 30 0 30 0 0 108 c0 148 27
190 116 180 47 -5 64 -52 64 -180 l0 -108 31 0 32 0 -5 128 c-7 179 -26 212
-126 212 -36 0 -59 -7 -86 -25 l-36 -24 0 24 c0 21 -5 25 -31 25 l-32 0 7 -52z"/>
<path d="M2680 320 l0 -170 30 0 30 0 0 170 0 170 -30 0 -30 0 0 -170z"/>
<path d="M2921 473 c-110 -54 -117 -230 -11 -300 25 -18 47 -23 94 -23 69 0
90 9 84 36 -3 16 -11 19 -61 16 -54 -4 -59 -2 -92 31 -31 31 -35 41 -35 87 0
46 4 56 35 87 34 34 38 35 90 31 52 -4 55 -3 55 18 0 12 -7 25 -16 28 -30 12
-109 5 -143 -11z"/>
<path d="M3400 488 c0 -2 24 -77 53 -168 l53 -165 38 0 38 0 39 120 c21 66 38
129 39 139 0 30 15 7 29 -44 7 -25 26 -85 43 -133 l31 -88 35 3 35 3 54 165
c29 91 53 166 53 168 0 1 -13 2 -29 2 -29 0 -31 -3 -65 -112 -19 -62 -38 -126
-42 -141 -5 -24 -14 -7 -52 112 l-46 141 -37 0 c-32 0 -38 -4 -44 -27 -3 -16
-22 -79 -42 -141 l-36 -113 -33 114 c-49 168 -49 167 -84 167 -16 0 -30 -1
-30 -2z"/>
<path d="M5190 320 l0 -170 30 0 30 0 0 94 c0 101 9 138 42 174 31 32 90 31
117 -4 19 -24 21 -40 21 -145 l0 -119 30 0 30 0 0 120 c0 178 -24 220 -126
220 -41 0 -59 -5 -82 -25 l-30 -25 -6 25 c-5 18 -13 25 -31 25 l-25 0 0 -170z"/>
<path d="M5990 320 l0 -170 30 0 30 0 0 95 c0 136 31 195 102 195 23 0 28 4
28 25 0 23 -4 25 -40 25 -30 0 -47 -7 -66 -25 -14 -14 -27 -25 -29 -25 -3 0
-5 11 -5 25 0 20 -5 25 -25 25 l-25 0 0 -170z"/>
<path d="M6303 470 c-47 -28 -67 -73 -68 -150 0 -78 23 -126 75 -153 45 -24
116 -18 159 12 l32 23 -7 -44 c-9 -60 -28 -85 -73 -99 -38 -11 -86 -6 -145 17
-13 5 -16 0 -16 -24 0 -29 3 -31 57 -42 106 -22 180 2 215 71 15 29 18 63 18
222 l0 187 -25 0 c-20 0 -25 -5 -25 -25 0 -14 -4 -25 -10 -25 -5 0 -10 4 -10
10 0 17 -58 40 -102 40 -25 0 -56 -8 -75 -20z m138 -40 c43 -24 63 -117 37
-175 -26 -58 -103 -71 -149 -26 -26 26 -29 36 -29 91 0 55 3 65 29 91 31 31
75 38 112 19z"/>
<path d="M7280 482 c0 -4 27 -81 60 -170 33 -90 60 -173 60 -186 0 -35 -46
-79 -76 -73 -20 3 -24 0 -24 -18 0 -29 20 -37 60 -25 41 12 58 26 80 69 15 31
150 396 150 407 0 2 -13 4 -29 4 -28 0 -30 -4 -77 -140 l-48 -139 -33 97 c-61
182 -61 182 -94 182 -16 0 -29 -4 -29 -8z"/>
<path d="M8088 478 c-21 -7 -28 -16 -28 -35 0 -22 3 -24 23 -18 12 4 45 10 73
12 44 4 55 1 73 -18 39 -42 29 -55 -46 -63 -37 -4 -82 -14 -101 -23 -92 -44
-67 -175 34 -184 58 -4 83 1 113 27 l31 26 0 -26 c0 -21 5 -26 25 -26 l25 0 0
120 c0 182 -24 221 -135 219 -33 0 -72 -5 -87 -11z m159 -204 c-8 -47 -31 -72
-73 -80 -42 -8 -84 17 -84 49 0 46 34 66 109 67 l54 0 -6 -36z"/>
</g>
</svg>
