<?xml version="1.0" standalone="no"?>
<!DOCTYPE svg PUBLIC "-//W3C//DTD SVG 20010904//EN"
 "http://www.w3.org/TR/2001/REC-SVG-20010904/DTD/svg10.dtd">
<svg version="1.0" xmlns="http://www.w3.org/2000/svg"
 width="1081.000000pt" height="709.000000pt" viewBox="0 0 1081.000000 709.000000"
 preserveAspectRatio="xMidYMid meet">

<g transform="translate(0.000000,709.000000) scale(0.100000,-0.100000)"
 stroke="none">
 <!-- ecb73a  -->
<path  fill="#f70016" d="M7850 5466 c0 -68 -18 -189 -46 -308 l-26 -107 -36 -8 c-47 -10 -338
-10 -377 1 -28 7 -26 3 30 -54 33 -34 104 -91 157 -127 78 -53 95 -69 88 -82
-27 -51 -114 -157 -188 -229 l-86 -84 40 7 c135 23 260 66 396 137 l78 40 65
-47 c37 -26 93 -69 126 -97 33 -27 63 -47 67 -44 3 4 6 91 6 195 l1 188 57 62
c93 100 157 208 186 312 l10 37 -87 -40 c-69 -33 -213 -88 -228 -88 -2 0 -3 6
-3 13 0 46 -194 365 -222 367 -5 0 -8 -20 -8 -44z"/>
<path fill="#28539c" d="M4790 4385 c-1007 -85 -1815 -414 -2172 -884 -62 -82 -132 -225 -152
-311 -22 -94 -20 -249 4 -345 84 -329 417 -639 920 -858 859 -373 2085 -451
3095 -198 857 216 1421 621 1522 1095 20 95 12 246 -17 341 -74 235 -254 446
-540 634 -115 75 -338 187 -496 249 -116 45 -365 126 -368 120 -13 -26 -128
-192 -173 -249 -58 -72 -140 -149 -159 -149 -5 0 -10 64 -11 143 -2 79 -11
186 -20 242 l-18 100 -60 12 c-92 18 -374 51 -530 63 -188 13 -634 11 -825 -5z
m2450 -604 c53 -28 80 -74 80 -136 0 -185 -252 -213 -301 -33 -33 124 106 230
221 169z m-3120 -147 c250 -89 400 -296 400 -549 -1 -283 -159 -513 -424 -616
-129 -50 -222 -59 -608 -59 -192 0 -348 3 -348 8 0 4 15 14 32 22 18 8 41 28
52 43 21 28 21 39 21 550 0 487 -1 524 -18 556 -12 21 -33 39 -58 49 -21 8
-39 19 -39 24 0 6 184 8 453 6 l452 -3 85 -31z m2542 -303 c65 -20 130 -72
158 -126 25 -49 25 -50 30 -377 5 -312 6 -328 26 -355 12 -15 31 -29 43 -31
11 -2 21 -8 21 -13 0 -5 -66 -9 -155 -9 -155 0 -155 0 -185 28 -19 16 -35 43
-40 67 -5 22 -10 169 -9 328 0 319 -3 336 -64 372 -45 28 -170 28 -211 0 -58
-39 -61 -56 -64 -442 l-3 -353 -180 0 c-113 0 -179 4 -179 10 0 6 6 10 14 10
8 0 24 12 35 26 20 26 21 38 21 378 0 215 -4 366 -11 389 -11 39 -56 77 -91
77 -10 0 -18 5 -18 11 0 7 51 9 160 7 179 -3 188 -7 214 -83 12 -35 14 -37 24
-18 18 33 83 77 152 101 56 20 79 22 170 18 58 -2 122 -9 142 -15z m-1729 -25
c14 -13 29 -35 31 -48 3 -12 7 -160 8 -328 3 -284 4 -307 23 -339 32 -54 65
-72 137 -78 111 -9 182 29 215 115 16 42 18 80 18 335 l0 289 -31 26 c-17 15
-39 32 -50 39 -15 9 11 12 133 12 83 1 163 -3 177 -9 14 -5 35 -24 46 -42 19
-31 20 -51 20 -400 0 -253 4 -375 11 -392 7 -14 25 -29 40 -35 80 -28 -25 -40
-198 -23 -77 8 -123 36 -123 74 0 25 -7 23 -35 -10 -58 -69 -181 -107 -321
-100 -148 8 -264 68 -321 166 l-28 47 -5 331 c-5 358 -5 357 -61 369 -69 15
-19 25 130 25 153 0 159 -1 184 -24z m2361 -7 c20 -17 40 -47 46 -67 6 -22 10
-178 10 -380 0 -381 2 -397 60 -409 68 -13 21 -23 -110 -23 -149 0 -188 9
-210 49 -6 13 -10 148 -10 368 0 218 -4 363 -11 387 -10 38 -35 69 -75 93 -15
9 9 12 123 12 l142 1 35 -31z"/>
<path fill="#28539c" d="M3550 3575 c-22 -27 -28 -1020 -6 -1050 12 -16 29 -20 114 -23 233
-10 381 56 460 205 50 95 63 156 69 308 8 221 -22 343 -112 443 -78 87 -176
121 -375 129 -122 5 -137 4 -150 -12z"/>
</g>
</svg>
