<?xml version="1.0" standalone="no"?>
<!DOCTYPE svg PUBLIC "-//W3C//DTD SVG 20010904//EN"
 "http://www.w3.org/TR/2001/REC-SVG-20010904/DTD/svg10.dtd">
<svg version="1.0" xmlns="http://www.w3.org/2000/svg"
 width="1417.000000pt" height="591.000000pt" viewBox="0 0 1417.000000 591.000000"
 preserveAspectRatio="xMidYMid meet">

<g transform="translate(0.000000,591.000000) scale(0.100000,-0.100000)"
fill="#000000" stroke="none">
<path fill="#ea690d" d="M2995 5580 c3 -5 -1 -10 -9 -10 -8 0 -20 -8 -25 -17 -6 -10 -11 -15
-11 -10 0 4 -12 -4 -27 -17 -156 -134 -219 -191 -223 -203 -3 -8 -10 -13 -14
-12 -11 3 -76 -52 -76 -63 0 -5 5 -6 12 -2 6 4 8 3 5 -4 -4 -5 -15 -8 -25 -5
-23 6 -86 -62 -75 -80 5 -9 3 -9 -8 0 -12 10 -23 4 -59 -30 -25 -23 -61 -55
-80 -71 -19 -17 -27 -27 -17 -23 11 4 16 3 12 -3 -3 -6 -11 -10 -16 -10 -14 0
-89 -53 -89 -63 0 -4 10 -2 23 4 17 9 19 9 11 0 -6 -7 -18 -13 -25 -14 -23 -4
-40 -18 -33 -28 3 -6 -2 -9 -12 -7 -11 2 -18 -2 -17 -9 2 -7 -3 -10 -11 -7 -7
3 -28 -12 -47 -33 -18 -21 -36 -37 -40 -36 -4 1 -21 -13 -38 -33 -17 -19 -31
-32 -31 -28 0 4 -11 -3 -25 -16 -13 -12 -22 -27 -19 -31 3 -5 -2 -9 -11 -9 -8
0 -18 -7 -21 -15 -4 -8 -11 -15 -16 -15 -15 0 -87 -67 -80 -74 3 -3 -2 -6 -11
-6 -10 0 -17 -4 -17 -10 0 -5 -17 -21 -37 -34 -39 -24 -159 -133 -134 -120 9
5 12 3 7 -5 -4 -6 -12 -8 -18 -5 -6 4 -28 -13 -49 -36 -22 -24 -39 -40 -39
-36 0 4 -7 0 -16 -8 -8 -9 -12 -21 -8 -27 4 -8 3 -9 -5 -5 -14 9 -43 -12 -35
-25 3 -5 -2 -6 -10 -3 -19 7 -22 -12 -3 -20 6 -3 2 -3 -9 -1 -16 4 -28 -2 -43
-21 -12 -15 -21 -23 -21 -18 0 5 -17 -8 -38 -28 -20 -21 -67 -63 -104 -94 -71
-59 -81 -74 -49 -74 11 0 22 -4 26 -9 3 -6 -7 -6 -26 -1 -37 11 -57 3 -93 -41
-14 -17 -26 -27 -26 -24 0 4 -7 2 -15 -5 -11 -9 -12 -16 -5 -25 8 -10 8 -15
-1 -21 -8 -4 -9 -3 -5 4 4 7 2 12 -4 12 -16 0 -76 -51 -72 -62 1 -4 -5 -8 -13
-8 -8 0 -19 -9 -25 -20 -6 -11 -14 -19 -19 -17 -4 1 -40 -27 -78 -63 -39 -36
-74 -66 -79 -67 -5 -1 -20 -16 -34 -34 -14 -18 -20 -30 -15 -27 6 4 17 3 25
-2 10 -6 2 -8 -23 -6 -30 3 -37 1 -33 -11 3 -8 2 -12 -2 -9 -13 8 -53 -24 -46
-36 4 -6 3 -8 -3 -5 -6 4 -20 -4 -32 -17 -15 -15 -19 -26 -12 -31 6 -3 11 -12
11 -18 0 -8 -3 -7 -9 2 -5 7 -14 11 -20 7 -15 -10 -81 -111 -81 -125 0 -6 -6
-11 -12 -11 -10 0 -10 -2 0 -9 11 -7 11 -9 -2 -14 -14 -6 -14 -10 -4 -27 7
-11 16 -20 21 -20 4 0 5 5 1 12 -4 7 -3 8 5 4 9 -6 9 -11 0 -22 -9 -11 -14
-10 -29 8 -17 22 -18 22 -35 -38 -10 -32 -19 -76 -20 -97 -2 -21 -5 -41 -9
-44 -9 -9 -7 -95 1 -90 5 3 9 -21 9 -52 1 -32 7 -68 14 -80 6 -13 14 -34 16
-48 3 -14 12 -36 21 -49 8 -13 12 -24 9 -24 -4 0 -2 -9 4 -20 7 -13 16 -17 28
-13 15 6 15 5 4 -10 -12 -14 -9 -23 19 -66 18 -27 37 -48 41 -45 4 3 8 0 8 -6
0 -7 6 -10 14 -7 10 4 14 0 11 -13 -5 -23 40 -67 50 -49 6 8 4 10 -5 4 -9 -5
-11 -4 -6 4 10 16 26 4 20 -14 -7 -16 5 -30 56 -65 19 -13 29 -17 22 -8 -10
13 -10 17 2 21 10 4 13 1 10 -8 -7 -16 33 -58 46 -50 6 4 10 1 10 -5 0 -6 4
-8 10 -5 6 3 10 2 10 -4 0 -16 58 -43 65 -31 3 6 14 9 23 9 15 -1 15 -2 0 -6
-10 -2 -18 -9 -18 -14 0 -6 5 -7 10 -4 6 3 10 2 10 -2 0 -7 53 -32 83 -39 4
-1 10 -3 15 -4 4 -1 10 -2 15 -1 4 0 7 -4 7 -10 0 -6 9 -9 20 -6 11 3 18 1 14
-4 -5 -8 0 -10 39 -13 6 -1 15 -4 18 -9 6 -9 46 -19 71 -19 10 1 18 -4 18 -9
0 -6 4 -8 9 -5 5 3 23 -2 41 -11 28 -14 35 -14 44 -2 6 8 20 19 31 25 11 7 19
20 18 29 -1 12 2 14 9 7 8 -8 28 3 67 35 31 25 55 50 53 55 -1 5 1 7 6 4 4 -2
21 6 38 20 16 14 23 22 15 18 -9 -5 -12 -3 -7 5 4 6 12 9 17 5 13 -8 40 16 32
29 -3 6 -1 7 5 3 14 -8 55 31 47 44 -3 6 1 7 11 3 13 -5 15 -2 9 18 -6 22 -6
22 6 7 15 -19 18 -17 99 52 l25 22 -31 -21 c-28 -18 -33 -19 -38 -5 -9 23 -7
31 3 15 7 -11 13 -11 32 0 13 7 30 14 37 15 21 4 42 25 35 37 -4 6 0 8 10 4
21 -8 34 12 16 25 -10 7 -7 7 9 3 13 -4 22 -2 22 5 0 6 4 9 9 6 10 -6 34 18
26 26 -3 3 2 11 12 19 15 12 16 12 8 -1 -5 -8 15 3 45 25 92 66 200 156 200
166 0 5 6 8 13 7 6 -2 11 2 10 9 -2 7 4 10 12 7 9 -4 15 0 15 10 0 9 7 16 14
16 8 0 26 10 39 23 43 38 72 62 82 67 6 3 9 9 7 13 -1 5 2 6 6 3 5 -3 29 13
53 37 23 23 39 35 35 27 -6 -13 -6 -13 6 0 7 8 26 23 41 33 25 16 26 19 12 33
-22 22 -19 28 6 10 20 -13 23 -12 50 15 16 16 29 27 29 23 0 -4 9 1 20 11 11
10 20 24 20 32 0 7 5 13 11 13 5 0 7 -5 3 -12 -5 -7 -3 -8 5 -4 7 5 10 15 6
23 -4 13 -3 14 10 3 8 -7 15 -8 15 -3 0 5 7 18 16 29 8 10 13 13 9 7 -9 -19
-1 -16 38 16 20 15 34 31 30 35 -3 3 -1 6 6 6 21 0 101 62 94 73 -3 6 -1 7 4
4 6 -4 19 3 29 15 11 12 14 18 7 15 -6 -4 -14 -3 -18 2 -3 6 4 8 15 6 33 -6
176 107 184 145 3 17 11 30 18 30 9 0 9 -3 0 -12 -24 -24 -12 -31 13 -8 14 13
25 19 25 14 1 -5 12 5 26 21 15 17 23 23 19 15 -4 -8 5 -3 20 12 18 17 26 32
21 43 -3 9 -11 13 -17 9 -8 -4 -9 -3 -5 5 4 6 12 9 17 6 5 -4 9 5 9 19 0 14
-5 26 -11 26 -7 0 -9 10 -5 26 4 14 3 23 -1 21 -4 -3 -9 11 -9 31 -1 21 -4 51
-7 67 -15 78 -18 102 -19 123 0 18 -4 22 -22 17 -19 -5 -19 -5 -3 5 15 10 17
19 11 58 -4 26 -9 52 -13 57 -3 6 -6 21 -7 35 -6 92 -23 173 -38 182 -8 6 -7
8 2 8 6 0 12 5 12 11 0 6 -7 8 -16 5 -14 -5 -15 -4 -5 8 12 15 6 81 -9 101 -4
6 -6 23 -4 40 2 23 1 26 -7 15 -8 -11 -9 -8 -5 13 7 30 -14 163 -23 148 -3 -5
-6 19 -7 54 0 34 -4 71 -9 81 -4 10 -7 29 -6 42 1 12 -1 22 -6 22 -4 0 -9 15
-9 33 -3 64 -22 158 -35 172 -5 5 -9 14 -9 20 0 5 5 3 10 -5 8 -13 10 -13 10
1 0 9 -3 19 -7 23 -5 4 -9 17 -9 29 -2 36 -13 107 -25 166 -11 51 -14 70 -18
109 0 6 -6 12 -12 12 -5 0 -7 -4 -4 -10z m9 -47 c4 -10 4 -14 0 -10 -4 4 -12
2 -19 -3 -8 -7 -12 -5 -12 5 0 8 4 12 9 9 4 -3 8 0 8 5 0 16 7 13 14 -6z m-61
-33 c-10 -11 -19 -20 -21 -20 -1 0 2 9 8 20 6 11 15 20 20 20 6 0 2 -9 -7 -20z
m-32 -4 c-6 -8 -10 -20 -9 -27 2 -8 -6 -14 -17 -15 -36 -2 -40 -4 -25 -14 11
-7 10 -9 -9 -7 -21 1 -19 5 21 39 45 39 58 47 39 24z m34 -45 c-3 -6 -11 -11
-17 -11 -6 0 -6 6 2 15 14 17 26 13 15 -4z m-237 -168 c-6 -7 -12 -13 -13 -13
-2 0 -5 6 -8 13 -3 7 3 13 14 13 13 0 15 -3 7 -13z m-88 -68 c0 -2 -9 -3 -19
-2 -11 0 -18 5 -15 9 4 6 34 0 34 -7z m-44 -17 c4 -7 4 -10 -1 -6 -4 4 -15 2
-24 -5 -14 -11 -14 -10 -2 6 16 20 18 21 27 5z m481 -50 c-3 -8 -6 -5 -6 6 -1
11 2 17 5 13 3 -3 4 -12 1 -19z m-504 -3 c-3 -9 -8 -14 -10 -11 -3 3 -2 9 2
15 9 16 15 13 8 -4z m-46 -11 c-3 -3 -12 -4 -19 -1 -8 3 -5 6 6 6 11 1 17 -2
13 -5z m-40 -21 c-4 -3 -1 -13 6 -22 11 -14 10 -14 -5 -2 -16 12 -16 31 -1 31
4 0 3 -3 0 -7z m621 -48 c-3 -3 -9 2 -12 12 -6 14 -5 15 5 6 7 -7 10 -15 7
-18z m-674 -10 c-4 -8 -10 -12 -15 -9 -11 6 -2 24 11 24 5 0 7 -7 4 -15z m47
-12 c13 -16 12 -17 -3 -4 -17 13 -22 21 -14 21 2 0 10 -8 17 -17z m-173 -137
c-18 -18 -35 -31 -37 -29 -6 5 51 63 61 63 5 0 -6 -15 -24 -34z m-244 -161
c-4 -8 -11 -15 -16 -15 -6 0 -5 6 2 15 7 8 14 15 16 15 2 0 1 -7 -2 -15z m36
-6 c0 -5 -5 -7 -12 -3 -7 5 -9 2 -6 -8 4 -8 0 -15 -7 -15 -10 0 -11 5 -4 19
11 20 29 24 29 7z m-103 -86 c0 -8 -4 -10 -12 -3 -7 5 -16 6 -20 2 -5 -4 -5
-2 -2 4 9 15 34 13 34 -3z m1160 -60 c-3 -10 -5 -4 -5 12 0 17 2 24 5 18 2 -7
2 -21 0 -30z m-1233 2 c-10 -8 -23 -15 -28 -15 -6 0 -1 7 10 15 10 8 23 15 28
15 6 0 1 -7 -10 -15z m-24 -32 c0 -3 -7 -3 -15 1 -8 3 -21 -4 -30 -17 -8 -12
-15 -17 -15 -13 0 18 32 45 46 39 8 -3 14 -7 14 -10z m1258 -48 c-3 -3 -9 2
-12 12 -6 14 -5 15 5 6 7 -7 10 -15 7 -18z m-1348 -5 c0 -5 -7 -10 -16 -10 -9
0 -12 -5 -8 -12 5 -7 3 -8 -6 -3 -10 6 -9 11 5 22 22 16 25 16 25 3z m35 -10
c3 -5 1 -10 -4 -10 -6 0 -11 5 -11 10 0 6 2 10 4 10 3 0 8 -4 11 -10z m1320
-10 c3 -5 1 -10 -4 -10 -6 0 -11 5 -11 10 0 6 2 10 4 10 3 0 8 -4 11 -10z
m-1400 -9 c3 -5 2 -12 -3 -15 -5 -3 -9 1 -9 9 0 17 3 19 12 6z m-5 -45 c0 -3
-4 -8 -10 -11 -5 -3 -10 -1 -10 4 0 6 5 11 10 11 6 0 10 -2 10 -4z m-80 -20
c0 -2 -8 -10 -17 -17 -16 -13 -17 -12 -4 4 13 16 21 21 21 13z m10 -70 c0 -2
-8 -10 -17 -17 -16 -13 -17 -12 -4 4 13 16 21 21 21 13z m-179 -103 c13 -16
12 -17 -3 -4 -10 7 -18 15 -18 17 0 8 8 3 21 -13z m1727 -38 c-3 -3 -9 2 -12
12 -6 14 -5 15 5 6 7 -7 10 -15 7 -18z m-1781 -11 c0 -10 -10 -11 -35 -5 -2 1
-1 5 2 9 8 13 33 10 33 -4z m-112 -78 c-13 -19 -13 -25 -3 -29 7 -3 3 -4 -9
-4 -28 2 -28 1 -1 32 27 32 33 32 13 1z m28 -21 c4 -8 3 -16 -1 -19 -4 -3 -9
4 -9 15 -2 23 3 25 10 4z m1867 -65 c0 -5 -5 -10 -11 -10 -5 0 -7 5 -4 10 3 6
8 10 11 10 2 0 4 -4 4 -10z m27 -32 c-3 -8 -6 -5 -6 6 -1 11 2 17 5 13 3 -3 4
-12 1 -19z m-2064 -20 c-6 -42 -20 -57 -18 -20 1 25 11 52 20 52 2 0 1 -15 -2
-32z m-40 -48 c-3 -12 -8 -19 -11 -16 -5 6 5 36 12 36 2 0 2 -9 -1 -20z m-76
-45 c-23 -22 -33 -18 -12 5 10 11 20 18 23 16 2 -3 -3 -12 -11 -21z m-17 -29
c0 -2 -8 -10 -17 -17 -16 -13 -17 -12 -4 4 13 16 21 21 21 13z m45 -6 c-3 -5
-2 -10 4 -10 5 0 12 6 14 13 4 9 6 9 6 0 1 -15 -16 -26 -29 -18 -10 6 -5 25 6
25 3 0 2 -4 -1 -10z m1886 -277 c13 -16 12 -17 -3 -4 -10 7 -18 15 -18 17 0 8
8 3 21 -13z m-2317 -49 c3 -8 2 -12 -4 -9 -6 3 -10 10 -10 16 0 14 7 11 14 -7z
m2246 -59 c0 -12 -19 -12 -23 0 -4 9 -1 12 9 8 7 -3 14 -7 14 -8z m-2310 -21
c0 -8 -5 -12 -10 -9 -6 4 -8 11 -5 16 9 14 15 11 15 -7z m2207 -36 c-2 -12
-10 -24 -18 -26 -11 -3 -11 -1 1 7 11 8 11 11 2 11 -10 0 -10 3 0 15 17 19 18
19 15 -7z m-73 -4 c3 -8 2 -12 -4 -9 -6 3 -10 10 -10 16 0 14 7 11 14 -7z
m-44 -108 c0 -2 -6 -9 -14 -15 -11 -9 -16 -9 -22 0 -4 7 -3 9 4 5 6 -3 13 -2
17 4 6 10 15 14 15 6z m-320 -196 c0 -5 -5 -10 -11 -10 -5 0 -7 5 -4 10 3 6 8
10 11 10 2 0 4 -4 4 -10z m0 -50 c0 -5 -5 -10 -11 -10 -5 0 -7 5 -4 10 3 6 8
10 11 10 2 0 4 -4 4 -10z m-65 -40 c-3 -5 -16 -15 -28 -21 -19 -9 -19 -8 3 10
28 23 34 26 25 11z m-1838 -42 c-3 -8 -6 -5 -6 6 -1 11 2 17 5 13 3 -3 4 -12
1 -19z m1718 -66 c-3 -3 -11 0 -18 7 -9 10 -8 11 6 5 10 -3 15 -9 12 -12z
m-199 -134 c4 -7 2 -8 -5 -4 -6 4 -19 2 -27 -5 -12 -9 -17 -10 -27 0 -9 10 -8
11 7 5 12 -4 17 -4 13 2 -3 6 3 10 13 11 11 1 23 -3 26 -9z m-32 -60 c-9 -14
-23 2 -17 18 4 12 8 13 14 3 4 -7 5 -17 3 -21z m-1384 -8 c0 -5 -2 -10 -4 -10
-3 0 -8 5 -11 10 -3 6 -1 10 4 10 6 0 11 -4 11 -10z m36 -22 c5 -7 3 -8 -6 -3
-9 6 -10 2 -5 -16 7 -23 7 -23 -8 -4 -11 15 -12 22 -4 27 15 10 15 10 23 -4z
m109 -59 c11 -16 1 -19 -13 -3 -7 8 -8 14 -3 14 5 0 13 -5 16 -11z m-44 -56
c13 -16 12 -17 -3 -4 -10 7 -18 15 -18 17 0 8 8 3 21 -13z m93 -21 c2 -4 -4
-8 -14 -8 -10 0 -16 4 -14 8 3 4 9 8 14 8 5 0 11 -4 14 -8z m864 -16 c-7 -8
-15 -12 -17 -11 -5 6 10 25 20 25 5 0 4 -6 -3 -14z m-876 -13 c-10 -4 -10 -8
0 -21 12 -15 11 -16 -4 -3 -19 14 -15 32 5 30 8 0 8 -2 -1 -6z m85 -58 c0 -8
-4 -12 -9 -9 -4 3 -8 9 -8 15 0 5 4 9 8 9 5 0 9 -7 9 -15z m733 5 c0 -5 -8
-10 -17 -10 -15 0 -16 2 -3 10 19 12 20 12 20 0z m-1 -23 c-2 -1 -13 -9 -24
-17 -19 -14 -19 -14 -6 3 7 9 18 17 24 17 6 0 8 -1 6 -3z m-461 -115 c-8 -4
-57 48 -58 61 0 4 15 -7 33 -25 19 -18 30 -34 25 -36z m362 47 c0 -6 -4 -7
-10 -4 -5 3 -10 11 -10 16 0 6 5 7 10 4 6 -3 10 -11 10 -16z m-435 -19 c-3 -5
-12 -10 -18 -10 -7 0 -6 4 3 10 19 12 23 12 15 0z m449 -12 c-3 -4 -9 -8 -15
-8 -5 0 -9 4 -9 8 0 5 7 9 15 9 8 0 12 -4 9 -9z"/>
<path d="M13185 3480 c-116 -17 -228 -64 -277 -117 -38 -40 -60 -97 -52 -138
14 -77 117 -154 255 -191 88 -24 272 -24 359 -1 189 51 277 138 256 253 -25
130 -303 230 -541 194z"/>
<path d="M12116 3363 c-3 -10 -35 -155 -71 -323 -36 -168 -68 -310 -70 -316
-2 -7 -27 11 -55 38 -105 101 -250 143 -495 142 -212 0 -360 -32 -520 -111
-131 -66 -266 -180 -352 -299 -55 -75 -121 -223 -150 -331 -35 -135 -36 -305
-3 -408 62 -194 226 -327 466 -376 140 -30 394 -23 535 14 103 27 230 86 293
136 22 17 41 30 43 27 3 -3 -11 -80 -23 -118 -5 -17 15 -18 330 -18 l335 0 11
53 c6 28 102 467 214 975 111 507 200 924 198 927 -3 3 -157 5 -343 5 -313 0
-338 -1 -343 -17z m-465 -913 c158 -30 224 -122 200 -280 -36 -236 -189 -360
-445 -360 -207 0 -316 82 -316 237 0 102 60 235 135 300 106 92 271 132 426
103z"/>
<path d="M6967 2920 c-525 -41 -848 -227 -993 -570 -87 -206 -114 -459 -65
-599 68 -196 239 -310 547 -367 141 -26 641 -27 789 -1 227 40 408 107 540
201 212 152 349 424 362 721 9 201 -27 306 -142 414 -106 99 -272 163 -490
190 -125 15 -418 21 -548 11z m287 -447 c77 -21 139 -78 156 -143 23 -85 -2
-225 -59 -338 -70 -137 -246 -214 -456 -199 -192 13 -275 88 -275 245 0 216
120 385 311 436 76 21 248 20 323 -1z"/>
<path d="M4155 2899 c-140 -21 -290 -85 -392 -169 -35 -28 -63 -45 -63 -38 0
7 7 40 15 73 8 33 14 70 15 83 l0 22 -329 0 -330 0 -17 -77 c-10 -43 -81 -368
-159 -723 l-142 -645 340 -3 c187 -1 342 0 345 3 3 3 45 186 94 407 99 455
112 492 191 545 86 58 228 67 284 19 47 -41 43 -79 -60 -546 l-94 -425 330 -3
c182 -1 332 -1 334 1 1 2 43 186 92 409 88 400 105 456 155 516 70 82 261 107
326 42 40 -40 37 -69 -60 -511 -51 -232 -95 -430 -97 -440 -5 -18 7 -19 341
-19 190 0 346 2 346 5 0 2 50 231 112 507 102 461 112 512 112 608 1 87 -3
113 -20 151 -43 93 -134 159 -265 195 -99 27 -317 25 -434 -4 -115 -29 -217
-78 -302 -147 -37 -30 -70 -55 -73 -55 -4 0 -12 16 -19 35 -20 56 -98 129
-165 154 -103 38 -268 51 -411 30z"/>
<path d="M9557 2895 c-164 -27 -310 -81 -419 -156 -32 -21 -58 -33 -58 -27 1
7 7 40 15 73 8 33 15 66 15 73 0 10 -70 12 -332 10 l-332 -3 -158 -715 c-86
-393 -157 -718 -158 -722 0 -5 155 -8 344 -8 l345 0 11 58 c7 31 43 196 81
367 78 354 97 404 184 484 158 143 423 129 464 -26 15 -53 11 -76 -87 -523
l-78 -355 339 -3 c187 -1 342 0 345 3 14 13 213 950 218 1026 17 228 -91 372
-326 433 -91 24 -302 29 -413 11z"/>
<path d="M12866 2798 c-9 -40 -79 -361 -156 -713 -77 -351 -140 -645 -140
-652 0 -11 65 -13 342 -11 l342 3 158 715 c86 393 157 718 158 723 0 4 -155 7
-344 7 l-344 0 -16 -72z"/>
<path fill="#ea690d" d="M480 2558 c0 -4 7 -40 16 -80 20 -94 22 -106 30 -148 3 -19 12 -49
20 -67 17 -37 18 -54 3 -33 -10 13 -10 13 -6 0 3 -9 10 -42 16 -75 7 -33 15
-67 18 -75 7 -16 9 -29 12 -72 0 -15 8 -33 16 -41 8 -9 11 -17 5 -19 -6 -2 -4
-22 3 -51 7 -27 15 -46 17 -44 3 3 6 -14 6 -38 1 -24 5 -52 9 -62 5 -10 9 -27
11 -38 4 -43 24 -127 35 -146 6 -11 8 -23 5 -27 -3 -3 2 -14 11 -25 10 -11 12
-17 6 -13 -14 8 -18 -6 -6 -18 8 -8 9 -13 11 -59 1 -16 6 -25 12 -22 6 3 7 -1
4 -10 -4 -8 -1 -21 5 -29 6 -7 8 -22 4 -31 -4 -11 -2 -16 3 -12 6 3 11 -9 11
-30 1 -19 6 -40 11 -45 6 -6 8 -18 4 -27 -5 -14 -4 -14 13 -1 17 14 18 14 7
-6 -13 -24 -5 -67 11 -57 6 4 8 0 4 -10 -3 -9 -2 -19 4 -22 5 -4 6 -12 3 -18
-5 -8 -3 -8 7 0 20 19 33 16 14 -3 -12 -13 -13 -19 -4 -24 6 -5 8 -13 4 -20
-6 -9 -4 -11 5 -5 10 6 12 4 7 -9 -4 -10 -1 -19 8 -22 8 -4 12 -10 9 -15 -3
-5 0 -9 5 -9 6 0 11 -9 11 -20 0 -18 32 -45 42 -35 3 3 5 -2 5 -10 0 -8 -5
-12 -10 -8 -5 3 -4 -4 3 -17 6 -12 18 -19 25 -16 9 3 12 -1 10 -13 -4 -23 51
-85 67 -75 7 5 8 3 3 -5 -4 -8 7 -27 31 -52 31 -32 40 -36 53 -26 14 10 14 10
3 -4 -10 -13 -9 -19 3 -29 12 -10 16 -9 21 4 3 9 10 16 15 16 4 0 5 -8 2 -17
-5 -12 -2 -15 9 -11 8 4 15 1 15 -7 0 -11 -5 -11 -21 -4 -18 9 -18 8 3 -10 12
-12 27 -18 32 -15 5 3 8 0 7 -8 -2 -7 3 -12 9 -10 7 1 13 -2 13 -8 0 -9 12
-16 117 -70 24 -12 50 -20 58 -16 8 3 14 2 12 -2 -1 -4 3 -9 8 -11 6 -2 18 -9
29 -16 10 -8 25 -11 34 -8 9 4 13 2 9 -4 -4 -6 3 -13 16 -16 12 -3 60 -17 106
-30 46 -14 89 -23 96 -20 7 2 16 0 20 -6 3 -6 14 -11 23 -10 14 0 13 2 -3 9
-16 7 -17 9 -3 9 9 1 21 -5 25 -13 9 -15 107 -35 159 -32 18 1 30 -2 28 -6 -3
-5 8 -8 25 -8 16 0 38 -3 48 -6 15 -5 15 -4 3 5 -23 16 -3 13 32 -5 21 -11 61
-16 124 -17 52 -1 94 -6 94 -11 0 -4 6 -6 13 -3 7 2 33 1 59 -3 30 -4 52 -3
59 4 9 8 10 8 5 -1 -5 -9 2 -12 24 -9 17 2 48 0 68 -5 20 -4 38 -6 40 -5 6 6
-11 85 -17 81 -4 -2 -5 10 -3 27 3 18 1 28 -5 25 -5 -3 -10 8 -10 26 -1 50 -8
84 -24 103 -12 15 -12 17 0 9 11 -6 13 -4 6 11 -4 10 -10 39 -12 64 -3 25 -9
48 -15 51 -6 4 -8 11 -5 16 6 10 -47 276 -53 269 -3 -2 -5 17 -6 44 -1 27 -5
57 -9 67 -9 20 -11 30 -14 58 -1 17 -3 18 -11 5 -6 -9 -10 -10 -10 -3 0 6 5
15 11 18 6 4 7 14 4 24 -4 9 -8 29 -11 45 -2 15 -6 36 -9 47 -7 20 -22 102
-31 163 -3 22 -9 47 -14 57 -5 9 -7 19 -3 22 3 4 -2 18 -12 33 -9 15 -12 23
-6 20 6 -4 11 -3 11 3 0 5 -4 12 -10 16 -5 3 -7 12 -3 20 3 9 0 22 -7 30 -6 8
-10 18 -7 22 3 4 -2 37 -9 73 -8 36 -17 83 -20 104 -7 54 -21 76 -47 77 -12 0
-31 2 -42 4 -48 9 -344 48 -380 50 -22 2 -52 8 -67 14 -15 6 -35 8 -43 5 -8
-4 -21 -1 -28 5 -7 5 -26 8 -41 5 -15 -2 -25 -1 -22 4 3 5 -5 9 -17 9 -12 0
-35 5 -51 12 -16 6 -35 10 -42 7 -7 -3 -14 0 -16 5 -2 5 -24 11 -50 12 -25 1
-44 4 -42 7 5 4 -72 30 -90 30 -6 0 -1 -7 10 -15 18 -14 17 -15 -8 -4 -15 7
-25 16 -21 22 3 6 1 7 -6 3 -6 -4 -17 -3 -24 2 -17 13 -88 36 -110 34 -9 0
-15 3 -12 9 6 9 -14 13 -48 10 -9 -1 -20 5 -23 13 -4 11 -14 14 -33 10 -20 -4
-23 -3 -11 5 11 8 11 11 3 12 -22 3 -27 4 -51 18 -22 12 -23 11 -20 -11 2 -13
13 -27 26 -33 22 -10 30 -25 12 -25 -20 0 -61 52 -55 70 5 15 2 18 -14 15 -12
-2 -20 1 -18 8 1 7 -6 11 -15 11 -10 -1 -15 2 -12 7 5 8 -9 13 -28 10 -5 0 -8
3 -8 7 0 4 -14 16 -31 26 -18 11 -29 14 -25 8 3 -6 1 -14 -5 -18 -8 -4 -9 -3
-5 4 4 7 -7 25 -26 42 -37 34 -53 39 -38 11 12 -24 -5 -40 -23 -22 -9 9 -8 10
7 5 16 -6 17 -5 7 14 -7 12 -9 22 -5 22 3 0 1 7 -6 15 -6 8 -15 14 -18 13 -19
-2 -33 3 -28 10 8 14 -61 75 -77 69 -10 -4 -13 0 -11 11 2 9 -5 28 -16 42 -11
14 -20 22 -20 18z m105 -129 c11 -16 1 -19 -13 -3 -7 8 -8 14 -3 14 5 0 13 -5
16 -11z m219 -175 c3 -8 2 -12 -4 -9 -6 3 -10 10 -10 16 0 14 7 11 14 -7z
m-59 -4 c3 -5 1 -10 -4 -10 -6 0 -11 5 -11 10 0 6 2 10 4 10 3 0 8 -4 11 -10z
m430 -130 c3 -5 -4 -6 -15 -3 -11 3 -22 9 -25 13 -3 5 4 6 15 3 11 -3 22 -9
25 -13z m2 -46 c-3 -3 -12 -4 -19 -1 -8 3 -5 6 6 6 11 1 17 -2 13 -5z m338
-54 c-3 -5 -14 -10 -23 -9 -14 0 -13 2 3 9 27 11 27 11 20 0z m45 -20 c-8 -5
-22 -9 -30 -9 -10 0 -8 3 5 9 27 12 43 12 25 0z m517 -56 c-3 -3 -12 -4 -19
-1 -8 3 -5 6 6 6 11 1 17 -2 13 -5z m-1378 -244 c0 -9 -4 -8 -9 5 -5 11 -9 27
-9 35 0 9 4 8 9 -5 5 -11 9 -27 9 -35z m1570 -89 c0 -15 -3 -20 -6 -11 -3 8
-10 23 -15 32 -6 14 -5 16 7 12 8 -4 15 -18 14 -33z m78 -342 c0 -21 -3 -26
-9 -16 -4 9 -5 22 -2 31 9 23 11 20 11 -15z m-1504 -96 c-7 -2 -19 -2 -25 0
-7 3 -2 5 12 5 14 0 19 -2 13 -5z m102 -164 c11 -16 1 -19 -13 -3 -7 8 -8 14
-3 14 5 0 13 -5 16 -11z m15 -83 c0 -2 -8 -10 -17 -17 -16 -13 -17 -12 -4 4
13 16 21 21 21 13z m1464 -52 c3 -8 2 -12 -4 -9 -6 3 -10 1 -10 -6 0 -7 -2
-10 -5 -7 -5 5 4 38 10 38 2 0 6 -7 9 -16z m-1427 -19 c0 -8 -4 -12 -9 -9 -5
3 -6 10 -3 15 9 13 12 11 12 -6z m1441 -70 c-3 -3 -9 2 -12 12 -6 14 -5 15 5
6 7 -7 10 -15 7 -18z m-21 -37 c-3 -8 -6 -5 -6 6 -1 11 2 17 5 13 3 -3 4 -12
1 -19z m-1162 -136 c-3 -3 -11 0 -18 7 -9 10 -8 11 6 5 10 -3 15 -9 12 -12z
m81 -49 c-6 -6 -36 9 -36 18 0 5 9 4 20 -3 10 -7 18 -14 16 -15z m1157 -108
c-3 -9 -8 -14 -10 -11 -3 3 -2 9 2 15 9 16 15 13 8 -4z m-810 -12 c-7 -2 -19
-2 -25 0 -7 3 -2 5 12 5 14 0 19 -2 13 -5z m124 1 c-3 -3 -12 -4 -19 -1 -8 3
-5 6 6 6 11 1 17 -2 13 -5z m368 -72 c-3 -3 -11 0 -18 7 -9 10 -8 11 6 5 10
-3 15 -9 12 -12z m152 4 c-3 -8 -1 -17 6 -19 7 -2 10 -6 7 -9 -3 -3 -16 1 -30
9 -19 9 -20 13 -7 13 9 0 17 5 17 10 0 6 3 10 6 10 3 0 4 -6 1 -14z m123 0 c0
-11 -19 -15 -25 -6 -3 5 1 10 9 10 9 0 16 -2 16 -4z m-263 -22 c-3 -3 -12 -4
-19 -1 -8 3 -5 6 6 6 11 1 17 -2 13 -5z"/>
</g>
</svg>
