<!-- Generated by IcoMoon.io -->
<svg fill="#e6e7e7" xmlns="http://www.w3.org/2000/svg" width="576" height="512" viewBox="0 0 576 512">
<title></title>
<g id="icomoon-ignore">
</g>
<path d="M512 88h-28v-28c0-15.4-12.6-28-28-28h-392c-15.4 0-28 12.6-28 28v336c0 15.4 12.6 28 28 28h28v28c0 15.4 12.6 28 28 28h392c15.4 0 28-12.6 28-28v-336c0-15.4-12.6-28-28-28zM92 116v280h-27.95c-0.017-0.015-0.036-0.033-0.050-0.051v-335.899c0.015-0.017 0.033-0.036 0.050-0.050h391.899c0.017 0.015 0.036 0.033 0.051 0.051v27.949h-336c-15.4 0-28 12.6-28 28v0zM512 451.949c-0.015 0.017-0.033 0.036-0.051 0.051h-391.899c-0.017-0.015-0.036-0.033-0.050-0.051v-335.899c0.015-0.017 0.033-0.036 0.050-0.050h391.899c0.017 0.015 0.036 0.033 0.051 0.051v335.898z"></path>
<path d="M456 186c0 23.196-18.804 42-42 42s-42-18.804-42-42 18.804-42 42-42 42 18.804 42 42z"></path>
<path d="M484 424h-336v-56l98-168 112 140h28l98-84z"></path>
</svg>
