<?xml version="1.0" standalone="no"?>
<!DOCTYPE svg PUBLIC "-//W3C//DTD SVG 20010904//EN"
 "http://www.w3.org/TR/2001/REC-SVG-20010904/DTD/svg10.dtd">
<svg version="1.0" xmlns="http://www.w3.org/2000/svg"
 width="200.000000pt" height="200.000000pt" viewBox="0 0 200.000000 200.000000"
 preserveAspectRatio="xMidYMid meet">

<g transform="translate(0.000000,200.000000) scale(0.100000,-0.100000)"
fill="#e6e7e7" stroke="none">
<path d="M506 1774 c-3 -9 -6 -36 -6 -60 l0 -44 -134 0 c-113 0 -135 -2 -140
-16 -3 -9 -6 -332 -6 -718 0 -533 3 -705 12 -714 17 -17 1109 -17 1126 0 9 9
12 109 12 388 l0 375 210 210 c116 115 210 217 210 225 0 23 -162 180 -185
180 -12 0 -64 -44 -127 -107 l-108 -108 0 127 c0 69 -3 133 -6 142 -5 14 -27
16 -140 16 l-134 0 0 48 c0 26 -5 53 -12 60 -9 9 -87 12 -289 12 -243 0 -278
-2 -283 -16z m514 -129 l0 -85 -225 0 -225 0 0 85 0 85 225 0 225 0 0 -85z
m-520 -79 c0 -77 -4 -76 295 -76 299 0 295 -1 295 76 l0 44 105 0 105 0 0
-147 0 -148 -225 -225 -224 -225 -86 -168 c-71 -137 -85 -170 -75 -182 7 -8
19 -15 26 -15 8 0 83 34 167 76 l152 76 133 131 132 132 0 -318 0 -317 -505 0
-505 0 0 665 0 665 105 0 105 0 0 -44z m1163 -198 l-47 -48 -53 52 -53 52 47
48 47 48 53 -52 53 -52 -47 -48z m-148 -48 l50 -50 -253 -253 -252 -252 -52
53 -53 52 250 250 c137 138 252 250 255 250 3 0 28 -23 55 -50z m-550 -550
c27 -27 47 -51 44 -54 -11 -10 -209 -105 -209 -100 0 12 102 204 109 204 4 0
29 -22 56 -50z"/>
<path d="M404 1385 c-4 -8 -4 -22 0 -30 8 -22 767 -23 786 0 7 8 10 22 6 30
-5 13 -57 15 -396 15 -338 0 -391 -2 -396 -15z"/>
<path d="M409 1264 c-9 -11 -10 -20 -2 -32 9 -15 47 -17 393 -17 346 0 384 2
393 17 8 12 7 21 -2 32 -12 14 -59 16 -391 16 -332 0 -379 -2 -391 -16z"/>
<path d="M412 1128 c-14 -14 -16 -186 -2 -208 7 -12 31 -15 109 -15 55 0 103
4 108 8 4 5 8 53 8 108 0 78 -3 102 -15 109 -22 14 -194 12 -208 -2z m158
-108 l0 -50 -50 0 -50 0 0 50 0 50 50 0 50 0 0 -50z"/>
<path d="M412 828 c-16 -16 -16 -190 0 -206 8 -8 47 -12 110 -12 97 0 99 1
108 26 13 33 13 145 0 178 -9 25 -11 26 -108 26 -63 0 -102 -4 -110 -12z m156
-100 l3 -48 -50 0 -51 0 0 51 0 50 48 -3 47 -3 3 -47z"/>
</g>
</svg>
