<svg aria-hidden="true" style="position: absolute; width: 0; height: 0; overflow: hidden;" version="1.1" xmlns="http://www.w3.org/2000/svg" xmlns:xlink="http://www.w3.org/1999/xlink">
<defs>
<symbol id="icon-info" viewBox="0 0 8 32">
<path d="M0.875 15.594c0-0.052 0.042-0.094 0.094-0.094h0.063c0.052 0 0.094 0.042 0.094 0.094v0.063c0 0.052-0.042 0.094-0.094 0.094h-0.063c-0.052 0-0.094-0.042-0.094-0.094v-0.063z"></path>
<path d="M1.25 16.5h-0.5v-0.125h0.125v-0.375h-0.125v-0.125h0.375v0.5h0.125z"></path>
<path d="M1 15c-0.552 0-1 0.448-1 1s0.448 1 1 1 1-0.448 1-1-0.448-1-1-1zM1 16.813c-0.449 0-0.813-0.364-0.813-0.813s0.364-0.813 0.813-0.813 0.813 0.364 0.813 0.813-0.364 0.813-0.813 0.813z"></path>
</symbol>
</defs>
</svg>
