<?xml version="1.0" standalone="no"?>
<!DOCTYPE svg PUBLIC "-//W3C//DTD SVG 20010904//EN"
 "http://www.w3.org/TR/2001/REC-SVG-20010904/DTD/svg10.dtd">
<svg version="1.0" xmlns="http://www.w3.org/2000/svg"
 width="525.000000pt" height="207.000000pt" viewBox="0 0 525.000000 207.000000"
 preserveAspectRatio="xMidYMid meet">

<g transform="translate(0.000000,207.000000) scale(0.100000,-0.100000)"
fill="#fff"  stroke="none">
<path d="M0 1105 l0 -965 76 0 75 0 -15 22 c-14 20 -16 93 -16 596 l0 574 29
29 29 29 841 0 840 0 3 243 c3 233 4 243 26 274 12 17 36 37 52 45 21 9 30 20
30 36 0 13 13 37 29 53 l29 29 -1014 0 -1014 0 0 -965z m1243 863 c55 15 107
-1 145 -44 32 -37 37 -58 32 -141 -1 -26 2 -33 17 -33 35 0 46 -15 35 -46
l-11 -29 2 30 c2 25 -2 30 -23 33 -20 2 -32 -6 -57 -41 l-31 -45 26 -19 26
-20 -22 -28 c-12 -15 -22 -23 -22 -18 0 6 7 16 15 23 20 17 19 22 -9 42 -23
16 -27 16 -62 2 -102 -43 -202 41 -192 162 4 48 3 53 -21 64 -22 10 -27 8 -43
-12 l-19 -23 13 28 c8 21 17 27 30 23 10 -3 27 -9 38 -12 11 -4 20 -2 20 4 0
6 14 27 31 46 25 29 28 38 19 56 -13 24 -33 26 -50 5 -7 -9 -15 -13 -18 -10
-3 2 6 13 19 24 24 20 24 20 50 -6 24 -22 31 -23 62 -15z m-594 -79 c21 -8 31
-17 29 -28 -4 -17 -28 -20 -65 -7 -43 14 -23 -12 22 -30 45 -17 58 -39 30 -50
-8 -3 -28 1 -44 9 -35 18 -36 16 -47 -106 -9 -101 -27 -127 -90 -127 -46 0
-84 25 -84 55 0 44 81 71 132 44 11 -6 21 -9 23 -7 3 3 35 237 35 255 0 6 29
2 59 -8z m845 -15 c4 -15 5 -28 3 -31 -3 -2 -7 7 -11 21 -4 17 -14 26 -34 29
-26 4 -26 4 4 6 27 1 33 -3 38 -25z m-426 -131 c-22 -3 -28 -10 -31 -36 -4
-31 -4 -31 -5 6 -2 36 -1 37 31 36 29 -2 29 -2 5 -6z m-330 -102 c3 -10 -2
-12 -24 -8 -27 5 -27 4 -9 -9 10 -8 22 -14 27 -14 4 0 8 -7 8 -15 0 -18 -2
-18 -35 -3 -24 11 -34 45 -18 62 11 11 46 2 51 -13z m-61 -118 c-3 -10 -5 -4
-5 12 0 17 2 24 5 18 2 -7 2 -21 0 -30z m-23 -16 c10 -7 16 -22 14 -33 -2 -15
-12 -19 -42 -19 -49 0 -72 28 -42 51 25 18 47 18 70 1z"/>
<path d="M1246 1950 c-37 -12 -85 -56 -102 -97 -29 -68 -7 -164 44 -192 16 -9
23 4 74 137 62 165 62 175 -16 152z m30 -31 c10 -17 -13 -36 -27 -22 -12 12
-4 33 11 33 5 0 12 -5 16 -11z"/>
<path d="M1272 1797 c-29 -78 -53 -145 -52 -149 0 -13 48 -9 84 6 68 28 117
131 97 203 -11 37 -46 83 -65 83 -6 0 -35 -64 -64 -143z m88 77 c0 -8 -7 -14
-15 -14 -15 0 -21 21 -9 33 10 9 24 -2 24 -19z"/>
<path d="M429 1624 c-28 -34 29 -70 83 -52 33 12 42 33 22 53 -20 20 -88 20
-105 -1z"/>
<path d="M597 1494 c-15 -15 -6 -24 24 -24 20 0 29 4 27 13 -5 14 -40 21 -51
11z"/>
<path d="M4881 2041 l29 -29 0 -361 0 -361 108 0 c126 0 164 -14 199 -76 l23
-39 0 448 0 447 -194 0 -194 0 29 -29z"/>
<path d="M2012 2027 c-52 -55 -137 -52 1348 -49 l1370 3 30 -30 30 -29 0 -316
0 -316 50 0 50 0 0 358 0 359 -23 21 -23 22 -1405 0 -1406 0 -21 -23z"/>
<path d="M2854 1939 c57 -45 56 -38 56 -547 l0 -469 -23 -34 c-42 -63 -67 -69
-294 -69 l-203 0 0 -185 0 -185 1040 0 1040 0 0 361 c0 399 1 407 64 452 26
19 47 23 134 25 l102 4 0 312 0 313 -23 21 -23 22 -948 0 -949 0 27 -21z
m1223 -133 c24 -20 28 -32 28 -74 l0 -49 65 -34 65 -35 45 23 c56 29 104 29
160 1 98 -50 128 -167 67 -259 -27 -41 -98 -79 -147 -79 -63 1 -146 52 -162
102 -3 7 -31 -4 -70 -26 l-66 -37 4 -52 c6 -61 -16 -105 -68 -137 -117 -71
-259 71 -188 188 26 42 76 72 120 72 31 0 57 -12 111 -52 14 -9 28 -4 81 26
l65 38 -4 47 c-3 35 1 57 19 92 l23 45 -66 37 c-59 32 -68 34 -81 21 -8 -9
-33 -18 -55 -21 -54 -7 -92 25 -100 84 -5 37 -2 45 25 73 39 38 88 41 129 6z"/>
<path d="M3965 1785 c-14 -13 -25 -36 -25 -50 0 -33 42 -75 75 -75 33 0 75 42
75 75 0 33 -42 75 -75 75 -14 0 -37 -11 -50 -25z m27 -37 c-9 -9 -9 -15 0 -27
10 -13 8 -13 -6 1 -18 16 -15 38 7 38 8 0 8 -3 -1 -12z m67 -24 c-6 -8 -16
-14 -21 -14 -6 0 -5 6 2 15 6 8 8 20 4 27 -6 10 -3 9 9 -1 13 -10 15 -17 6
-27z"/>
<path d="M4295 1626 c-101 -44 -125 -178 -46 -257 65 -65 157 -65 222 0 124
124 -15 327 -176 257z m10 -116 l-28 -30 27 -21 c15 -12 25 -24 21 -27 -3 -3
-19 8 -36 24 l-30 29 33 27 c43 36 49 35 13 -2z m154 -29 c0 -3 -14 -17 -32
-30 l-32 -25 29 31 28 31 -26 17 c-14 10 -26 22 -26 28 0 6 14 -2 30 -18 17
-16 30 -31 29 -34z"/>
<path d="M3868 1372 c-33 -20 -58 -68 -58 -111 0 -22 11 -43 34 -69 31 -33 39
-37 85 -37 43 0 55 5 82 31 59 60 46 154 -27 189 -42 20 -82 19 -116 -3z m62
-102 c-6 -23 -14 -40 -16 -37 -3 3 0 24 7 46 16 54 24 46 9 -9z m-63 23 c-16
-16 -15 -18 5 -40 12 -13 17 -23 11 -23 -5 0 -20 11 -32 24 l-22 24 22 16 c30
21 38 20 16 -1z m136 -1 c16 -17 15 -20 -8 -42 -14 -13 -25 -18 -25 -12 0 6 8
15 17 21 17 9 16 11 -1 30 -11 12 -15 21 -9 21 5 0 17 -8 26 -18z"/>
<path d="M1951 1932 c-33 -18 -71 -71 -71 -99 0 -10 104 -13 505 -13 l505 0 0
24 c0 13 -9 35 -21 50 -44 56 -44 56 -481 56 -372 0 -406 -1 -437 -18z m17
-49 c-2 -10 -10 -18 -18 -18 -8 0 -16 8 -18 18 -2 12 3 17 18 17 15 0 20 -5
18 -17z m92 -3 c0 -21 -24 -28 -35 -10 -8 14 3 30 21 30 8 0 14 -9 14 -20z
m98 3 c-2 -10 -10 -18 -18 -18 -8 0 -16 8 -18 18 -2 12 3 17 18 17 15 0 20 -5
18 -17z"/>
<path d="M1880 1377 c0 -400 1 -435 18 -466 38 -71 39 -71 490 -71 437 0 437
0 481 56 21 26 21 36 21 470 l0 444 -505 0 -505 0 0 -433z m350 278 c0 -13
-17 -15 -112 -13 -78 2 -113 7 -116 16 -3 9 24 12 112 12 98 0 116 -2 116 -15z
m418 3 c-4 -10 -47 -13 -173 -13 -126 0 -169 3 -172 13 -4 9 35 12 172 12 137
0 176 -3 173 -12z m-223 -103 c0 -10 -387 -20 -413 -10 -7 3 -10 9 -7 15 9 14
420 9 420 -5z m365 0 c0 -13 -22 -15 -134 -15 -123 0 -157 6 -139 24 3 3 66 6
140 6 112 0 133 -2 133 -15z m-702 -102 c2 -9 -10 -13 -42 -13 -43 0 -55 7
-39 24 12 11 76 2 81 -11z m335 2 c1 -6 -45 -11 -120 -13 -112 -2 -136 2 -116
22 11 11 233 2 236 -9z m192 0 c0 -5 -28 -11 -62 -13 -52 -2 -63 0 -63 13 0
13 11 15 63 13 34 -2 62 -7 62 -13z m-387 -102 c3 -10 -24 -13 -112 -13 -107
0 -128 5 -109 24 13 12 216 2 221 -11z m190 0 c3 -10 -13 -13 -57 -13 -57 0
-71 6 -54 24 12 12 106 2 111 -11z m-280 -105 c-3 -9 -26 -13 -68 -13 -42 0
-65 4 -67 13 -4 9 14 12 67 12 53 0 71 -3 68 -12z m510 0 c-4 -10 -50 -14
-179 -16 -178 -3 -224 1 -214 18 10 16 398 13 393 -2z m-203 -103 c0 -10 -407
-20 -433 -10 -7 3 -10 9 -7 15 9 14 440 9 440 -5z m325 0 c0 -13 -20 -15 -124
-15 -114 0 -147 6 -129 24 3 3 62 6 130 6 103 0 123 -2 123 -15z m-500 -100
c0 -10 -233 -20 -258 -10 -7 2 -10 10 -7 15 9 14 265 9 265 -5z m500 0 c0 -13
-28 -15 -195 -15 -167 0 -195 2 -195 15 0 13 28 15 195 15 167 0 195 -2 195
-15z"/>
<path d="M166 1349 l-26 -20 0 -568 c0 -560 0 -569 21 -595 l20 -26 1068 0
c1066 0 1068 0 1095 21 l26 20 0 320 0 319 -35 0 -35 0 0 -286 0 -286 -29 -29
-29 -29 -982 0 -982 0 -29 29 -29 29 0 507 0 507 29 29 29 29 485 0 c456 0
485 1 483 18 0 9 6 17 14 17 8 0 14 -8 14 -17 -2 -17 18 -18 292 -18 l294 0 0
25 0 25 -834 0 c-828 0 -833 0 -860 -21z"/>
<path d="M266 1279 l-26 -20 0 -498 c0 -489 0 -499 21 -525 l20 -26 973 0
c970 0 973 0 1000 21 l26 20 0 284 0 284 -162 3 c-153 3 -165 4 -197 27 -54
39 -61 68 -61 271 l0 180 -784 0 c-777 0 -784 0 -810 -21z m497 -185 c45 -23
66 -44 88 -86 59 -115 -30 -258 -161 -258 -131 0 -220 143 -161 258 45 89 151
128 234 86z m600 -320 c45 -23 66 -44 88 -86 59 -115 -30 -258 -161 -258 -131
0 -220 143 -161 258 45 89 151 128 234 86z"/>
<path d="M618 1070 c-106 -57 -115 -201 -17 -270 95 -68 233 -4 246 114 14
121 -122 214 -229 156z"/>
<path d="M1218 750 c-106 -57 -115 -201 -17 -270 95 -68 233 -4 246 114 14
121 -122 214 -229 156z"/>
<path d="M4561 1252 c-35 -19 -71 -72 -71 -104 0 -17 23 -18 365 -18 408 0
386 -4 347 69 -36 67 -55 71 -347 71 -233 0 -264 -2 -294 -18z m419 -62 c0 -6
-48 -10 -125 -10 -77 0 -125 4 -125 10 0 6 48 10 125 10 77 0 125 -4 125 -10z"/>
<path d="M4490 675 l0 -435 365 0 365 0 0 435 0 435 -365 0 -365 0 0 -435z
m510 96 c0 -5 -7 -8 -16 -7 -31 2 -26 -23 8 -37 27 -12 36 -12 48 -1 12 10 19
10 35 -3 20 -15 20 -15 -2 -9 -12 4 -24 2 -28 -4 -10 -16 23 -54 47 -55 12 0
23 -7 26 -15 3 -12 2 -12 -8 -3 -20 18 -40 4 -40 -29 0 -38 -40 -78 -78 -78
-36 0 -50 -26 -25 -47 16 -13 16 -13 -5 -3 -16 8 -21 17 -17 33 4 17 -1 26
-25 39 -17 10 -36 30 -43 46 -13 30 -36 32 -38 4 0 -13 -2 -13 -8 3 -7 16 -3
22 15 28 15 6 24 17 24 30 0 24 37 67 57 67 7 0 18 11 23 25 9 24 50 37 50 16z
m-108 -223 c-8 -8 -9 -15 -1 -25 7 -8 8 -13 1 -13 -12 0 -24 29 -16 41 3 5 10
9 17 9 8 0 8 -3 -1 -12z"/>
<path d="M4916 702 c-3 -5 23 -37 58 -71 66 -65 76 -66 76 -4 0 30 -50 83 -80
83 -12 0 -19 -4 -15 -9 3 -5 1 -12 -4 -15 -5 -4 -13 -1 -17 5 -5 8 -3 9 6 4 9
-5 11 -4 6 3 -8 14 -23 16 -30 4z"/>
<path d="M4892 648 c0 -17 4 -40 9 -50 11 -21 60 -48 88 -48 42 0 34 24 -24
77 -32 29 -61 53 -65 53 -4 0 -7 -14 -8 -32z m23 13 c3 -5 2 -12 -3 -15 -5 -3
-9 1 -9 9 0 17 3 19 12 6z"/>
<path d="M2390 395 l0 -35 1040 0 1040 0 0 35 0 35 -1040 0 -1040 0 0 -35z"/>
<path d="M2390 262 c0 -54 -5 -84 -16 -100 l-15 -22 65 0 66 0 0 -41 c0 -31
-6 -47 -29 -70 l-29 -29 144 0 144 0 0 81 c0 76 2 82 29 110 l29 29 215 0 215
0 -11 30 c-8 22 -8 38 0 60 l11 30 -409 0 -409 0 0 -78z"/>
<path d="M3226 318 c-22 -32 -20 -64 6 -82 18 -13 56 -16 210 -16 175 0 189 1
208 20 27 27 26 65 -2 84 -18 13 -57 16 -215 16 -187 0 -192 -1 -207 -22z"/>
<path d="M3683 310 c8 -22 8 -38 0 -60 l-11 -30 220 0 220 0 29 -29 c27 -28
29 -34 29 -110 l0 -81 208 0 207 1 -37 20 c-61 32 -78 77 -78 209 l0 110 -399
0 -399 0 11 -30z"/>
<path d="M4490 172 c0 -60 26 -110 71 -134 30 -16 61 -18 294 -18 233 0 264 2
294 18 45 24 71 74 71 134 l0 48 -365 0 -365 0 0 -48z m404 -18 c31 -30 9 -84
-34 -84 -24 0 -50 26 -50 50 0 24 26 50 50 50 10 0 26 -7 34 -16z"/>
<path d="M2762 177 c-18 -19 -22 -35 -22 -90 l0 -67 705 0 705 0 0 68 c0 59
-3 72 -23 90 l-23 22 -660 0 -661 0 -21 -23z"/>
<path d="M20 92 c0 -17 10 -37 23 -50 l23 -22 1176 0 c1174 0 1175 0 1202 21
17 14 26 30 26 50 l0 29 -1225 0 -1225 0 0 -28z"/>
<path d="M5217 75 c-10 -20 -32 -42 -54 -54 l-38 -20 58 -1 57 0 0 55 c0 30
-1 55 -3 55 -2 0 -11 -16 -20 -35z"/>
<path d="M0 33 c0 -31 2 -33 32 -33 32 0 32 0 11 15 -13 9 -27 23 -32 33 -9
14 -10 11 -11 -15z"/>
</g>
</svg>
