<?xml version="1.0" standalone="no"?>
<!DOCTYPE svg PUBLIC "-//W3C//DTD SVG 20010904//EN"
 "http://www.w3.org/TR/2001/REC-SVG-20010904/DTD/svg10.dtd">
<svg version="1.0" xmlns="http://www.w3.org/2000/svg"
 width="213.000000pt" height="246.000000pt" viewBox="0 0 213.000000 246.000000"
 preserveAspectRatio="xMidYMid meet">

<g transform="translate(0.000000,246.000000) scale(0.100000,-0.100000)"
  stroke="none">
<path fill="#e6e7e7 " d="M551 2117 l-521 -301 0 -595 0 -596 511 -295 c281 -162 518 -296 527
-298 9 -1 247 130 527 292 l510 295 3 599 2 600 -519 300 -520 299 -520 -300z
m979 -101 l455 -263 0 -534 0 -533 -290 -168 c-159 -92 -365 -211 -456 -263
l-166 -95 -461 266 -462 267 0 527 0 528 458 265 c251 146 459 265 462 266 3
0 210 -118 460 -263z"/>
<path fill="#f9efdd   " d="M513 1660 c-103 -21 -163 -78 -163 -157 0 -34 4 -43 21 -48 34 -11
44 8 30 53 -10 29 -10 44 -2 60 13 25 82 59 138 68 l42 6 -40 -153 c-83 -320
-100 -359 -155 -373 -13 -4 -24 -11 -24 -16 0 -6 11 -7 28 -3 15 5 66 8 115 7
48 0 87 3 87 8 0 4 -8 8 -18 8 -10 0 -26 6 -36 13 -16 12 -16 20 16 140 18 70
37 126 43 124 17 -6 47 -66 87 -175 50 -138 92 -203 153 -232 65 -31 129 -24
167 19 30 34 32 39 19 60 -11 17 -39 8 -48 -16 -19 -54 -57 -66 -109 -34 -43
26 -66 68 -114 206 -22 66 -52 139 -65 162 l-24 43 47 32 c26 17 83 59 127 93
44 33 98 69 120 80 l40 20 -94 3 c-69 2 -97 -1 -102 -10 -6 -9 0 -14 21 -16
17 -2 30 -9 29 -15 -1 -28 -242 -199 -247 -175 -2 11 33 145 55 211 5 15 -1
17 -48 16 -30 -1 -73 -5 -96 -9z"/>
<path fill="#f9efdd  " d="M1764 1292 c-59 -53 -128 -141 -208 -264 -39 -59 -71 -106 -73 -104
-3 3 -33 354 -33 385 0 22 -166 8 -222 -18 -55 -25 -70 -38 -102 -85 -42 -63
-29 -176 20 -176 25 0 27 28 6 70 -25 51 -18 83 26 126 35 34 110 64 160 64
24 0 24 -1 18 -61 -11 -91 -50 -239 -82 -303 -15 -32 -45 -73 -67 -93 -38 -34
-41 -35 -93 -28 -46 5 -55 4 -61 -11 -18 -49 51 -68 122 -34 92 45 164 183
198 385 13 71 15 76 20 45 4 -19 11 -109 17 -200 17 -263 8 -254 99 -101 63
105 161 249 201 294 8 9 -67 -268 -95 -352 -9 -29 -15 -54 -14 -55 2 -2 48 -7
102 -11 85 -6 97 -5 97 9 0 13 -11 16 -50 16 -38 0 -52 4 -57 16 -3 9 22 119
57 243 87 316 87 309 14 243z"/>
</g>
</svg>


