<?xml version="1.0" standalone="no"?>
<!DOCTYPE svg PUBLIC "-//W3C//DTD SVG 20010904//EN"
 "http://www.w3.org/TR/2001/REC-SVG-20010904/DTD/svg10.dtd">
<svg version="1.0" xmlns="http://www.w3.org/2000/svg"
 width="525.000000pt" height="207.000000pt" viewBox="0 0 525.000000 207.000000"
 preserveAspectRatio="xMidYMid meet">

<g transform="translate(0.000000,207.000000) scale(0.100000,-0.100000)"
fill="#fff" stroke="none">
<path d="M1999 2041 c-16 -16 -29 -40 -29 -53 0 -16 -9 -27 -30 -36 -16 -8
-40 -28 -52 -45 -22 -31 -23 -41 -26 -274 l-3 -243 -840 0 -841 0 -29 -29 -29
-29 0 -574 c0 -503 2 -576 16 -596 l15 -22 -75 0 -76 0 0 -41 c0 -31 6 -47 29
-70 l29 -29 1187 0 1187 0 29 29 c23 23 29 39 29 70 l0 41 -66 0 -65 0 15 22
c11 16 16 46 16 100 l0 78 409 0 409 0 -11 -30 c-8 -22 -8 -38 0 -60 l11 -30
-215 0 -215 0 -29 -29 c-27 -28 -29 -34 -29 -110 l0 -81 725 0 725 0 0 81 c0
76 -2 82 -29 110 l-29 29 -220 0 -220 0 11 30 c8 22 8 38 0 60 l-11 30 399 0
399 0 0 -110 c0 -133 17 -178 80 -210 36 -19 58 -20 305 -20 248 0 269 1 306
20 25 13 46 34 57 57 l17 36 6 -59 c3 -32 5 409 5 981 0 572 -2 838 -4 590
l-2 -450 -23 39 c-35 62 -73 76 -199 76 l-108 0 0 361 0 361 -29 29 -29 29
-1412 0 -1412 0 -29 -29z m2868 -13 l23 -21 0 -359 0 -358 -50 0 -50 0 0 316
0 316 -30 29 -30 30 -1370 -3 c-1485 -3 -1400 -6 -1348 49 l21 23 1406 0 1405
0 23 -22z m-120 -90 l23 -21 0 -313 0 -312 -102 -4 c-87 -2 -108 -6 -134 -25
-63 -45 -64 -53 -64 -452 l0 -361 -1040 0 -1040 0 0 185 0 185 203 0 c227 0
252 6 294 69 l23 34 0 469 c0 509 1 502 -56 547 l-27 21 949 0 948 0 23 -22z
m-1927 -3 c37 -19 70 -62 70 -91 l0 -24 -505 0 c-401 0 -505 3 -505 13 0 28
38 81 71 99 31 17 65 18 437 18 336 0 408 -2 432 -15z m70 -569 c0 -434 0
-444 -21 -470 -44 -56 -44 -56 -481 -56 -451 0 -452 0 -490 71 -17 31 -18 66
-18 466 l0 433 505 0 505 0 0 -444z m-1030 -21 l0 -25 -294 0 c-274 0 -294 1
-292 18 0 9 -6 17 -14 17 -8 0 -14 -8 -14 -17 2 -17 -27 -18 -483 -18 l-485 0
-29 -29 -29 -29 0 -507 0 -507 29 -29 29 -29 982 0 982 0 29 29 29 29 0 286 0
286 35 0 35 0 0 -319 0 -320 -26 -20 c-27 -21 -29 -21 -1095 -21 l-1068 0 -20
26 c-21 26 -21 35 -21 595 l0 568 26 20 c27 21 32 21 860 21 l834 0 0 -25z m0
-225 c0 -203 7 -232 61 -271 32 -23 44 -24 197 -27 l162 -3 0 -284 0 -284 -26
-20 c-27 -21 -30 -21 -1000 -21 l-973 0 -20 26 c-21 26 -21 36 -21 525 l0 498
26 20 c26 21 33 21 810 21 l784 0 0 -180z m3289 132 c35 -19 71 -72 71 -104 0
-17 -23 -18 -365 -18 -408 0 -386 -4 -347 69 36 67 55 71 347 71 233 0 264 -2
294 -18z m71 -577 l0 -435 -365 0 -365 0 0 435 0 435 365 0 365 0 0 -435z
m-750 -280 l0 -35 -1040 0 -1040 0 0 35 0 35 1040 0 1040 0 0 -35z m-822 -71
c28 -19 29 -57 2 -84 -19 -19 -33 -20 -208 -20 -154 0 -192 3 -210 16 -26 18
-28 50 -6 82 15 21 20 22 207 22 158 0 197 -3 215 -16z m1572 -152 c0 -60 -26
-110 -71 -134 -30 -16 -61 -18 -294 -18 -233 0 -264 2 -294 18 -45 24 -71 74
-71 134 l0 48 365 0 365 0 0 -48z m-1093 6 c20 -18 23 -31 23 -90 l0 -68 -705
0 -705 0 0 67 c0 55 4 71 22 90 l21 23 661 0 660 0 23 -22z m-1657 -87 c0 -20
-9 -36 -26 -50 -27 -21 -28 -21 -1202 -21 l-1176 0 -23 22 c-13 13 -23 33 -23
50 l0 28 1225 0 1225 0 0 -29z"/>
<path d="M3948 1800 c-27 -28 -30 -36 -25 -73 8 -59 46 -91 100 -84 22 3 47
12 55 21 13 13 22 11 81 -21 l66 -37 -23 -45 c-18 -35 -22 -57 -19 -92 l4 -47
-65 -38 c-53 -30 -67 -35 -81 -26 -54 40 -80 52 -111 52 -44 0 -94 -30 -120
-72 -71 -117 71 -259 188 -188 52 32 74 76 68 137 l-4 52 66 37 c39 22 67 33
70 26 16 -50 99 -101 162 -102 49 0 120 38 147 79 61 92 31 209 -67 259 -56
28 -104 28 -160 -1 l-45 -23 -65 35 -65 34 0 49 c0 42 -4 54 -28 74 -41 35
-90 32 -129 -6z m117 -15 c14 -13 25 -36 25 -50 0 -33 -42 -75 -75 -75 -33 0
-75 42 -75 75 0 33 42 75 75 75 14 0 37 -11 50 -25z m358 -159 c103 -43 128
-177 48 -257 -65 -65 -157 -65 -222 0 -124 123 13 325 174 257z m-439 -251
c73 -35 86 -129 27 -189 -27 -26 -39 -31 -82 -31 -46 0 -54 4 -85 37 -38 42
-44 80 -19 132 29 60 95 81 159 51z"/>
<path d="M3974 1749 c-3 -6 2 -18 12 -27 14 -14 16 -14 6 -1 -9 12 -9 18 0 27
9 9 9 12 1 12 -7 0 -15 -5 -19 -11z"/>
<path d="M4044 1752 c4 -7 2 -19 -4 -27 -7 -9 -8 -15 -2 -15 5 0 15 6 21 14 9
10 7 17 -6 27 -12 10 -15 11 -9 1z"/>
<path d="M4292 1512 l-33 -27 30 -29 c17 -16 33 -27 36 -24 4 3 -6 15 -21 27
l-27 21 28 30 c36 37 30 38 -13 2z"/>
<path d="M4400 1533 c0 -6 12 -18 26 -28 l26 -17 -28 -31 -29 -31 32 25 c18
13 32 27 32 30 1 3 -12 18 -29 34 -16 16 -30 24 -30 18z"/>
<path d="M3921 1279 c-7 -22 -10 -43 -7 -46 2 -3 10 14 16 37 15 55 7 63 -9 9z"/>
<path d="M3851 1294 l-22 -16 22 -24 c12 -13 27 -24 32 -24 6 0 1 10 -11 23
-20 22 -21 24 -5 40 22 21 14 22 -16 1z"/>
<path d="M3986 1289 c17 -19 18 -21 1 -30 -9 -6 -17 -15 -17 -21 0 -6 11 -1
25 12 23 22 24 25 8 42 -9 10 -21 18 -26 18 -6 0 -2 -9 9 -21z"/>
<path d="M1932 1883 c2 -10 10 -18 18 -18 8 0 16 8 18 18 2 12 -3 17 -18 17
-15 0 -20 -5 -18 -17z"/>
<path d="M2025 1890 c-8 -14 3 -30 21 -30 8 0 14 9 14 20 0 21 -24 28 -35 10z"/>
<path d="M2122 1883 c2 -10 10 -18 18 -18 8 0 16 8 18 18 2 12 -3 17 -18 17
-15 0 -20 -5 -18 -17z"/>
<path d="M2002 1658 c3 -9 38 -14 116 -16 95 -2 112 0 112 13 0 13 -18 15
-116 15 -88 0 -115 -3 -112 -12z"/>
<path d="M2303 1658 c3 -10 46 -13 172 -13 126 0 169 3 173 13 3 9 -36 12
-173 12 -137 0 -176 -3 -172 -12z"/>
<path d="M2005 1560 c-3 -6 0 -12 7 -15 26 -10 413 0 413 10 0 14 -411 19
-420 5z"/>
<path d="M2517 1564 c-18 -18 16 -24 139 -24 112 0 134 2 134 15 0 13 -21 15
-133 15 -74 0 -137 -3 -140 -6z"/>
<path d="M2007 1464 c-16 -17 -4 -24 39 -24 32 0 44 4 42 13 -5 13 -69 22 -81
11z"/>
<path d="M2187 1464 c-20 -20 4 -24 116 -22 75 2 121 7 120 13 -3 11 -225 20
-236 9z"/>
<path d="M2490 1455 c0 -13 11 -15 63 -13 34 2 62 8 62 13 0 6 -28 11 -62 13
-52 2 -63 0 -63 -13z"/>
<path d="M2007 1364 c-19 -19 2 -24 109 -24 88 0 115 3 112 13 -5 13 -208 23
-221 11z"/>
<path d="M2307 1364 c-17 -18 -3 -24 54 -24 44 0 60 3 57 13 -5 13 -99 23
-111 11z"/>
<path d="M2003 1248 c2 -9 25 -13 67 -13 42 0 65 4 68 13 3 9 -15 12 -68 12
-53 0 -71 -3 -67 -12z"/>
<path d="M2255 1250 c-10 -17 36 -21 214 -18 129 2 175 6 179 16 5 15 -383 18
-393 2z"/>
<path d="M2005 1150 c-3 -6 0 -12 7 -15 26 -10 433 0 433 10 0 14 -431 19
-440 5z"/>
<path d="M2517 1154 c-18 -18 15 -24 129 -24 104 0 124 2 124 15 0 13 -20 15
-123 15 -68 0 -127 -3 -130 -6z"/>
<path d="M2005 1050 c-3 -5 0 -13 7 -15 25 -10 258 0 258 10 0 14 -256 19
-265 5z"/>
<path d="M2380 1045 c0 -13 28 -15 195 -15 167 0 195 2 195 15 0 13 -28 15
-195 15 -167 0 -195 -2 -195 -15z"/>
<path d="M615 1093 c-44 -23 -65 -44 -86 -85 -45 -87 -8 -193 83 -239 115 -59
258 30 258 161 0 44 -26 105 -56 131 -56 49 -141 63 -199 32z m164 -32 c100
-72 89 -216 -22 -272 -140 -72 -289 101 -198 230 51 71 152 90 220 42z"/>
<path d="M1215 773 c-44 -23 -65 -44 -86 -85 -45 -87 -8 -193 83 -239 115 -59
258 30 258 161 0 44 -26 105 -56 131 -56 49 -141 63 -199 32z m164 -32 c100
-72 89 -216 -22 -272 -140 -72 -289 101 -198 230 51 71 152 90 220 42z"/>
<path d="M4730 1190 c0 -6 48 -10 125 -10 77 0 125 4 125 10 0 6 -48 10 -125
10 -77 0 -125 -4 -125 -10z"/>
<path d="M4950 755 c-5 -14 -16 -25 -23 -25 -20 0 -57 -43 -57 -67 0 -13 -9
-24 -24 -30 -18 -6 -22 -12 -15 -28 6 -16 8 -16 8 -3 2 28 25 26 38 -4 7 -16
26 -36 43 -46 24 -13 29 -22 25 -39 -4 -16 1 -25 17 -33 21 -10 21 -10 5 3
-25 21 -11 47 25 47 38 0 78 40 78 78 0 33 20 47 40 29 10 -9 11 -9 8 3 -3 8
-14 15 -26 15 -24 1 -57 39 -47 55 4 6 16 8 28 4 22 -6 22 -6 2 9 -16 13 -23
13 -35 3 -12 -11 -21 -11 -48 1 -34 14 -39 39 -8 37 9 -1 16 2 16 7 0 21 -41
8 -50 -16z m-4 -57 c5 -7 3 -8 -6 -3 -9 5 -11 4 -6 -4 4 -6 12 -9 17 -5 5 3 7
10 4 15 -4 5 3 9 15 9 30 0 80 -53 80 -83 0 -62 -10 -61 -76 4 -57 56 -69 79
-44 79 5 0 12 -5 16 -12z m19 -71 c58 -53 66 -77 24 -77 -28 0 -77 27 -88 48
-11 21 -12 82 -1 82 4 0 33 -24 65 -53z"/>
<path d="M4903 655 c0 -8 4 -12 9 -9 5 3 6 10 3 15 -9 13 -12 11 -12 -6z"/>
<path d="M4876 551 c-8 -12 4 -41 16 -41 7 0 6 5 -1 13 -8 10 -7 17 1 25 9 9
9 12 1 12 -7 0 -14 -4 -17 -9z"/>
<path d="M4826 154 c-31 -30 -9 -84 34 -84 24 0 50 26 50 50 0 24 -26 50 -50
50 -10 0 -26 -7 -34 -16z"/>
<path d="M1131 1989 c-13 -11 -22 -22 -19 -24 3 -3 11 1 18 10 17 21 37 19 50
-5 9 -18 6 -27 -19 -56 -17 -19 -31 -40 -31 -46 0 -6 -9 -8 -20 -4 -11 3 -28
9 -38 12 -13 4 -22 -2 -30 -23 l-13 -28 19 23 c16 20 21 22 43 12 24 -11 25
-16 21 -64 -10 -121 90 -205 192 -162 35 14 39 14 62 -2 28 -20 29 -25 9 -42
-8 -7 -15 -17 -15 -23 0 -5 10 3 22 18 l22 28 -26 20 -26 19 31 45 c25 35 37
43 57 41 21 -3 25 -8 23 -33 l-2 -30 11 29 c11 31 0 46 -35 46 -15 0 -18 7
-17 33 5 83 0 104 -32 141 -38 43 -90 59 -145 44 -31 -8 -38 -7 -62 15 -26 26
-26 26 -50 6z m175 -37 c8 -5 -6 -53 -44 -154 -51 -133 -58 -146 -74 -137 -51
28 -73 124 -44 192 29 67 123 125 162 99z m63 -36 c86 -92 4 -276 -124 -276
-14 0 -25 3 -25 8 -1 20 107 292 116 292 6 0 20 -11 33 -24z"/>
<path d="M1244 1919 c-10 -17 13 -36 27 -22 12 12 4 33 -11 33 -5 0 -12 -5
-16 -11z"/>
<path d="M1336 1893 c-12 -12 -6 -33 9 -33 8 0 15 6 15 14 0 17 -14 28 -24 19z"/>
<path d="M590 1897 c0 -18 -32 -252 -35 -255 -2 -2 -12 1 -23 7 -51 27 -132 0
-132 -44 0 -30 38 -55 84 -55 63 0 81 26 90 127 11 122 12 124 47 106 16 -8
36 -12 44 -9 28 11 15 33 -30 50 -45 18 -65 44 -22 30 37 -13 61 -10 65 7 2
11 -8 20 -29 28 -30 10 -59 14 -59 8z m-56 -272 c20 -20 11 -41 -22 -53 -54
-18 -111 18 -83 52 17 21 85 21 105 1z"/>
<path d="M1452 1893 c20 -3 30 -12 34 -29 4 -14 8 -23 11 -21 2 3 1 16 -3 31
-5 22 -11 26 -38 25 -30 -2 -30 -2 -4 -6z"/>
<path d="M1032 1713 c1 -37 1 -37 5 -6 3 26 9 33 31 36 24 4 24 4 -5 6 -32 1
-33 0 -31 -36z"/>
<path d="M687 1654 c-16 -17 -6 -51 18 -62 33 -15 35 -15 35 3 0 8 -4 15 -8
15 -5 0 -17 6 -27 14 -18 13 -18 14 9 9 22 -4 27 -2 24 8 -5 15 -40 24 -51 13z"/>
<path d="M672 1535 c0 -16 2 -22 5 -12 2 9 2 23 0 30 -3 6 -5 -1 -5 -18z"/>
<path d="M584 1506 c-30 -23 -7 -51 42 -51 30 0 40 4 42 19 4 21 -22 46 -48
46 -9 0 -25 -6 -36 -14z m64 -23 c2 -9 -7 -13 -27 -13 -30 0 -39 9 -24 24 11
10 46 3 51 -11z"/>
</g>
</svg>
